:FULLY-SPECIFIED
:FORCE-ALL-JOINTS-BE-3DOF
:DEGREES
211
root 8.36462 16.5449 -7.69336 7.63287 0.684387 -4.39111
lfemur -44.1959 1.5418 -16.3252
ltibia 24.4435 -0 0
lfoot -15.0848 10.893 -0.046436
ltoes -15.7894 0 0
rfemur 4.54342 4.56478 30.021
rtibia 12.4132 -0 0
rfoot -15.7295 4.91042 0.00438971
rtoes -9.44199 0 0
lowerback -6.20367 2.23149 2.09635
upperback -0.847435 2.73989 3.28585
thorax 2.52741 1.3761 2.43222
lowerneck -16.4596 -6.59692 -14.4425
upperneck 15.0034 -8.3807 15.0553
head 8.67446 -3.41597 6.47492
lclavicle 2.45185e-14 1.43484e-15 -7.00395e-31
lhumerus -49.5941 -9.54304 95.3432
lradius 26.976 -0 0
lwrist 7.98733 0 0
lhand -12.2298 -24.0983 -0.0198523
lfingers 7.12502 -0 0
lthumb 13.8363 5.43299 -0.0154227
rclavicle 2.45185e-14 1.43484e-15 -7.00395e-31
rhumerus -36.1838 10.9766 -81.4958
rradius 52.1341 -0 0
rwrist -27.0125 0 0
rhand -33.0922 -28.6384 0.013554
rfingers 7.12502 -0 0
rthumb -6.30312 -58.5242 0.0130318
212
root 8.39521 16.5402 -7.47307 7.69731 0.465021 -4.36825
lfemur -44.5203 1.68999 -16.4741
ltibia 24.6599 -0 0
lfoot -15.0193 10.7566 -0.0570081
ltoes -15.4632 0 0
rfemur 5.0101 4.48588 29.8607
rtibia 12.6502 -0 0
rfoot -15.1119 4.9874 0.00216578
rtoes -9.5116 0 0
lowerback -6.22086 2.2696 2.06133
upperback -0.898328 2.79442 3.24987
thorax 2.48069 1.40366 2.41727
lowerneck -16.4793 -6.58184 -14.4376
upperneck 15.0458 -8.36336 15.0568
head 8.689 -3.4064 6.47826
lclavicle 2.37679e-14 1.08895e-15 -8.18639e-31
lhumerus -49.6182 -9.37968 95.1662
lradius 26.8082 -0 0
lwrist 7.64942 0 0
lhand -12.1792 -24.0978 -0.0218113
lfingers 7.12502 -0 0
lthumb 13.8851 5.43115 -0.016983
rclavicle 2.37679e-14 1.08895e-15 -8.18639e-31
rhumerus -36.3565 10.9396 -81.6266
rradius 52 -0 0
rwrist -26.9539 0 0
rhand -33.0379 -28.5216 0.0173074
rfingers 7.12502 -0 0
rthumb -6.25071 -58.4086 0.0166227
213
root 8.42814 16.5354 -7.24288 7.76628 0.241111 -4.34076
lfemur -44.8266 1.85745 -16.6327
ltibia 24.9356 -0 0
lfoot -14.9259 10.6141 -0.0676592
ltoes -15.1116 0 0
rfemur 5.47459 4.40058 29.6819
rtibia 12.9221 -0 0
rfoot -14.4451 5.06721 -0.00137354
rtoes -9.59113 0 0
lowerback -6.23736 2.30617 2.02173
upperback -0.954123 2.84738 3.21162
thorax 2.42845 1.43045 2.40243
lowerneck -16.5025 -6.56688 -14.433
upperneck 15.0894 -8.34586 15.0587
head 8.70457 -3.39661 6.48174
lclavicle 2.2895e-14 7.45434e-16 -9.26965e-31
lhumerus -49.6444 -9.20696 94.9798
lradius 26.628 -0 0
lwrist 7.28272 0 0
lhand -12.1092 -24.0898 -0.0231756
lfingers 7.12502 -0 0
lthumb 13.9527 5.43497 -0.0180897
rclavicle 2.2895e-14 7.45434e-16 -9.26965e-31
rhumerus -36.5521 10.8981 -81.7668
rradius 51.8349 -0 0
rwrist -26.881 0 0
rhand -32.9738 -28.3948 0.02126
rfingers 7.12502 -0 0
rthumb -6.18881 -58.2831 0.0204006
214
root 8.46317 16.5304 -7.00394 7.83935 0.0132419 -4.30882
lfemur -45.1148 2.04276 -16.8005
ltibia 25.2666 -0 0
lfoot -14.8064 10.466 -0.0782387
ltoes -14.7366 0 0
rfemur 5.93558 4.30966 29.4854
rtibia 13.2274 -0 0
rfoot -13.7329 5.14919 -0.00631961
rtoes -9.68019 0 0
lowerback -6.25317 2.3411 1.97773
upperback -1.01445 2.89864 3.17124
thorax 2.37111 1.45641 2.38773
lowerneck -16.5292 -6.55201 -14.4286
upperneck 15.1344 -8.32816 15.0606
head 8.72114 -3.38657 6.48532
lclavicle 2.1908e-14 4.04852e-16 -1.0245e-30
lhumerus -49.672 -9.02592 94.7847
lradius 26.4361 -0 0
lwrist 6.88934 0 0
lhand -12.0209 -24.075 -0.023993
lfingers 7.12502 -0 0
lthumb 14.0377 5.44413 -0.0187778
rclavicle 2.1908e-14 4.04852e-16 -1.0245e-30
rhumerus -36.769 10.8522 -81.9156
rradius 51.6406 -0 0
rwrist -26.7946 0 0
rhand -32.9004 -28.2586 0.0253434
rfingers 7.12502 -0 0
rthumb -6.11798 -58.1483 0.0243005
215
root 8.50008 16.5254 -6.75744 7.91607 -0.218003 -4.27263
lfemur -45.3847 2.24454 -16.9772
ltibia 25.6493 -0 0
lfoot -14.6627 10.3128 -0.0885992
ltoes -14.3398 0 0
rfemur 6.39175 4.21387 29.2722
rtibia 13.5642 -0 0
rfoot -12.9793 5.23268 -0.0127421
rtoes -9.77839 0 0
lowerback -6.26831 2.37431 1.92954
upperback -1.07893 2.94805 3.1289
thorax 2.30906 1.48147 2.37323
lowerneck -16.5591 -6.53717 -14.4243
upperneck 15.1808 -8.31023 15.0627
head 8.7387 -3.37629 6.48896
lclavicle 2.08155e-14 6.7754e-17 -1.1105e-30
lhumerus -49.7002 -8.83759 94.5816
lradius 26.2337 -0 0
lwrist 6.47138 0 0
lhand -11.9158 -24.0536 -0.0243165
lfingers 7.12502 -0 0
lthumb 14.139 5.45829 -0.0190859
rclavicle 2.08155e-14 6.7754e-17 -1.1105e-30
rhumerus -37.0059 10.8021 -82.0724
rradius 51.4187 -0 0
rwrist -26.6956 0 0
rhand -32.8184 -28.1134 0.0294892
rfingers 7.12502 -0 0
rthumb -6.0388 -58.0049 0.0282573
216
root 8.53866 16.5202 -6.50454 7.996 -0.45204 -4.23239
lfemur -45.6363 2.46141 -17.1622
ltibia 26.0796 -0 0
lfoot -14.4965 10.1548 -0.0985982
ltoes -13.923 0 0
rfemur 6.84175 4.1139 29.0431
rtibia 13.9309 -0 0
rfoot -12.1882 5.317 -0.020686
rtoes -9.88532 0 0
lowerback -6.28278 2.40573 1.87734
upperback -1.14719 2.99547 3.08477
thorax 2.24271 1.50554 2.35899
lowerneck -16.5922 -6.52235 -14.4202
upperneck 15.2286 -8.29202 15.0647
head 8.75722 -3.36576 6.49263
lclavicle 1.96259e-14 -2.65306e-16 -1.18438e-30
lhumerus -49.7282 -8.64299 94.3712
lradius 26.0216 -0 0
lwrist 6.03095 0 0
lhand -11.7951 -24.0262 -0.0242022
lfingers 7.12502 -0 0
lthumb 14.2553 5.47713 -0.0190555
rclavicle 1.96259e-14 -2.65306e-16 -1.18438e-30
rhumerus -37.2614 10.7479 -82.2362
rradius 51.1712 -0 0
rwrist -26.5847 0 0
rhand -32.7284 -27.9601 0.0336292
rfingers 7.12502 -0 0
rthumb -5.95183 -57.8534 0.0322063
